<?xml version="1.0" standalone="no"?>
<!DOCTYPE svg PUBLIC "-//W3C//DTD SVG 20010904//EN"
 "http://www.w3.org/TR/2001/REC-SVG-20010904/DTD/svg10.dtd">
<svg version="1.0" xmlns="http://www.w3.org/2000/svg"
 width="512.000000pt" height="512.000000pt" viewBox="0 0 512.000000 512.000000"
 preserveAspectRatio="xMidYMid meet">

<g transform="translate(0.000000,512.000000) scale(0.100000,-0.100000)"
fill="#000000" stroke="none">
<path d="M0 3941 l0 -1179 50 -4 c51 -3 60 3 60 42 0 16 -10 21 -50 26 -56 7
-55 3 -39 107 14 97 15 98 68 86 24 -5 45 -8 47 -6 2 2 7 17 10 34 6 30 5 31
-40 37 -39 6 -46 11 -46 29 0 20 37 168 44 174 2 2 22 -4 46 -12 47 -17 58
-12 62 24 3 20 -4 26 -39 38 -24 8 -43 19 -43 24 0 8 59 170 65 177 1 1 22 -7
46 -18 41 -18 45 -18 57 -3 22 30 14 51 -24 63 -19 7 -38 18 -41 25 -2 8 12
46 32 84 l37 71 45 -26 c24 -15 45 -25 47 -23 1 2 15 25 29 51 l27 47 -40 23
c-22 13 -40 27 -40 32 0 15 81 136 92 136 5 0 24 -12 43 -26 l34 -25 17 27 18
27 -37 31 -37 31 56 70 c31 39 60 72 66 74 5 2 23 -9 39 -25 l29 -28 26 25 25
26 -35 31 -35 31 69 73 69 73 33 -39 33 -38 24 26 25 26 -27 28 c-15 16 -27
31 -27 35 0 9 55 58 109 99 l36 27 31 -36 31 -37 27 18 27 17 -25 34 c-14 19
-26 38 -26 43 0 11 121 92 136 92 5 0 19 -18 32 -40 14 -26 27 -38 35 -34 7 4
29 18 50 31 l38 24 -25 43 -26 44 71 37 c38 20 76 34 84 32 7 -3 18 -22 25
-41 12 -38 33 -46 63 -23 15 11 15 15 -3 56 -11 24 -19 45 -18 46 7 6 169 65
177 65 5 0 16 -19 24 -42 12 -36 18 -43 38 -40 36 4 41 15 24 62 -8 24 -14 44
-12 46 6 7 154 44 174 44 18 0 23 -7 29 -46 6 -45 7 -46 37 -40 17 3 32 8 34
10 2 2 -1 23 -6 47 -12 53 -11 54 86 68 104 16 100 17 107 -39 5 -40 10 -50
26 -50 39 0 45 9 42 59 l-4 48 39 6 c21 4 59 7 86 7 l47 0 0 -50 0 -50 60 0
60 0 0 50 0 50 48 0 c26 0 64 -3 85 -7 l39 -6 -4 -48 c-3 -50 3 -59 42 -59 16
0 21 10 26 50 7 56 3 55 107 39 97 -14 98 -15 86 -68 -5 -24 -8 -45 -6 -47 2
-2 17 -7 34 -10 29 -6 30 -4 37 37 4 23 9 46 11 50 4 6 183 -35 192 -45 2 -1
-4 -22 -12 -46 -17 -47 -12 -58 24 -62 19 -3 26 4 37 36 8 22 16 42 19 44 9 9
186 -62 181 -73 -2 -5 -11 -27 -20 -48 -16 -37 -16 -37 9 -47 39 -15 42 -13
55 26 7 19 18 38 25 41 8 2 46 -12 84 -32 l71 -37 -26 -44 -25 -43 38 -24 c21
-13 43 -27 50 -31 8 -4 21 8 35 34 13 22 27 40 32 40 15 0 136 -81 136 -92 0
-5 -12 -24 -26 -43 l-25 -34 27 -17 27 -18 31 37 31 36 36 -27 c54 -41 109
-90 109 -99 0 -4 -12 -19 -27 -35 l-27 -28 25 -26 24 -26 33 38 33 39 69 -73
69 -73 -35 -31 -35 -31 25 -26 26 -25 29 28 c16 16 34 27 39 25 6 -2 35 -35
66 -74 l56 -70 -37 -31 -37 -31 18 -27 17 -27 34 25 c19 14 38 26 43 26 11 0
92 -121 92 -136 0 -5 -18 -19 -40 -32 l-40 -23 27 -47 c14 -26 28 -49 29 -51
2 -2 23 8 47 23 l45 26 37 -71 c20 -38 34 -76 32 -84 -3 -7 -22 -18 -41 -25
-38 -12 -46 -33 -23 -63 11 -15 15 -15 56 3 24 11 45 19 46 18 6 -7 65 -169
65 -177 0 -5 -19 -16 -42 -24 -36 -12 -43 -18 -40 -38 4 -36 15 -41 62 -24 24
8 44 14 46 12 7 -6 44 -154 44 -174 0 -18 -7 -23 -46 -29 -45 -6 -46 -7 -40
-37 3 -17 8 -32 10 -34 2 -2 23 1 47 6 53 12 54 11 68 -86 16 -104 17 -100
-39 -107 -50 -7 -55 -12 -44 -51 4 -17 12 -20 53 -17 l48 4 7 -48 c3 -26 6
-64 6 -85 l0 -39 -50 0 -50 0 0 -60 0 -60 50 0 50 0 0 -39 c0 -21 -3 -59 -6
-85 l-7 -48 -48 4 c-50 3 -59 -3 -59 -42 0 -16 10 -21 50 -26 56 -7 55 -3 39
-107 -14 -97 -15 -98 -68 -86 -24 5 -45 8 -47 6 -2 -2 -7 -17 -10 -34 -6 -30
-5 -31 40 -37 39 -6 46 -11 46 -29 0 -20 -37 -168 -44 -174 -2 -2 -22 4 -46
12 -47 17 -58 12 -62 -24 -3 -20 4 -26 40 -38 23 -8 42 -19 42 -24 0 -8 -59
-170 -65 -177 -1 -1 -22 7 -46 18 -41 18 -45 18 -56 3 -23 -30 -15 -51 23 -63
19 -7 38 -18 41 -25 2 -8 -12 -46 -32 -84 l-37 -71 -45 26 c-24 15 -45 25 -47
23 -1 -2 -15 -25 -29 -51 l-27 -47 40 -23 c22 -13 40 -27 40 -32 0 -15 -81
-136 -92 -136 -5 0 -24 12 -43 26 l-34 25 -17 -27 -18 -27 37 -31 37 -31 -56
-70 c-31 -38 -60 -72 -66 -74 -5 -2 -23 9 -39 25 l-29 28 -26 -25 -25 -26 35
-31 35 -31 -69 -73 -69 -73 -33 39 -33 38 -24 -26 -25 -26 28 -29 c16 -16 27
-34 25 -40 -2 -5 -35 -35 -74 -66 l-70 -55 -31 37 -31 37 -27 -18 -27 -17 25
-34 c14 -19 26 -38 26 -43 0 -5 -31 -30 -69 -55 l-70 -46 -26 45 c-16 28 -31
42 -38 37 -7 -3 -29 -17 -50 -30 l-38 -24 25 -43 26 -44 -71 -37 c-38 -20 -76
-34 -84 -32 -7 3 -18 22 -25 41 -12 38 -33 46 -63 24 -15 -12 -15 -16 3 -57
11 -24 19 -45 18 -46 -7 -6 -169 -65 -177 -65 -5 0 -16 19 -24 43 -12 35 -18
42 -38 39 -36 -4 -41 -15 -24 -62 8 -24 14 -45 12 -46 -9 -10 -188 -51 -192
-45 -2 4 -7 27 -11 50 -7 41 -8 43 -37 37 -17 -3 -32 -8 -34 -10 -2 -2 1 -23
6 -47 5 -24 8 -45 6 -47 -2 -3 -19 -8 -37 -12 -18 -4 450 -8 1040 -9 l1072 -1
0 2560 0 2560 -2560 0 -2560 0 0 -1179z"/>
<path d="M2340 4790 c-10 -18 -8 -20 25 -20 l35 0 0 -170 c0 -163 1 -170 20
-170 19 0 20 7 20 190 l0 190 -45 0 c-34 0 -47 -5 -55 -20z"/>
<path d="M2628 4794 c-49 -26 -66 -84 -25 -84 13 0 26 9 32 22 12 28 53 43 88
34 34 -8 61 -49 53 -78 -3 -13 -46 -73 -96 -135 -49 -62 -90 -115 -90 -118 0
-3 52 -5 115 -5 108 0 115 1 115 20 0 18 -7 20 -76 20 l-76 0 65 78 c78 95 87
111 87 157 0 29 -8 45 -34 71 -30 30 -40 34 -82 34 -27 -1 -61 -7 -76 -16z"/>
<path d="M1292 4520 c-11 -19 -10 -20 23 -20 l35 0 2 -172 c3 -162 4 -173 22
-173 18 0 19 10 19 190 l0 190 -44 3 c-35 2 -46 -1 -57 -18z"/>
<path d="M1592 4528 c-20 -20 -14 -28 23 -28 l35 0 0 -175 c0 -168 1 -175 20
-175 19 0 20 7 20 195 l0 195 -43 0 c-24 0 -48 -5 -55 -12z"/>
<path d="M3540 4520 c-10 -18 -8 -20 25 -20 l35 0 0 -175 c0 -168 1 -175 20
-175 19 0 20 7 20 195 l0 195 -45 0 c-34 0 -47 -5 -55 -20z"/>
<path d="M2420 4293 c-14 -18 -17 -29 -10 -31 6 -2 18 5 26 17 17 23 44 27 62
9 21 -21 13 -45 -38 -112 l-51 -66 61 0 c33 0 60 4 60 10 0 6 -18 10 -41 10
l-41 0 41 51 c46 58 51 89 19 119 -30 28 -62 25 -88 -7z"/>
<path d="M2607 4225 l-58 -85 51 0 c38 0 50 -4 50 -15 0 -8 5 -15 10 -15 6 0
10 7 10 15 0 8 7 15 15 15 8 0 15 5 15 10 0 6 -7 10 -15 10 -11 0 -15 17 -17
75 l-3 75 -58 -85z m40 -62 c-3 -2 -17 -3 -31 -1 l-25 3 27 42 27 43 3 -41 c2
-23 1 -43 -1 -46z"/>
<path d="M1582 4078 c-14 -14 -16 -48 -3 -48 5 0 13 9 16 20 13 41 74 24 75
-21 0 -8 -20 -42 -45 -73 -25 -32 -45 -60 -45 -62 0 -2 26 -3 58 -2 42 1 47 2
20 5 -21 2 -38 9 -38 14 0 6 16 31 35 56 39 51 42 68 19 101 -17 25 -71 31
-92 10z"/>
<path d="M1742 4078 c-12 -12 -17 -38 -7 -38 3 0 14 9 25 20 16 16 25 18 40
10 24 -13 26 -37 4 -61 -14 -16 -14 -18 5 -29 27 -14 28 -56 0 -70 -16 -9 -26
-8 -44 4 -35 23 -52 20 -30 -4 45 -49 141 6 107 60 -8 13 -10 34 -7 54 5 24 2
38 -10 49 -19 20 -66 22 -83 5z"/>
<path d="M3293 4083 c15 -4 17 -17 17 -99 0 -56 4 -94 10 -94 6 0 10 40 10
100 l0 100 -27 -1 c-17 -1 -21 -3 -10 -6z"/>
<path d="M3422 4078 c-12 -12 -17 -38 -7 -38 3 0 14 9 25 20 16 16 25 18 40
10 24 -13 26 -37 4 -61 -14 -16 -14 -18 5 -29 27 -14 28 -56 0 -70 -16 -9 -26
-8 -44 4 -34 23 -52 20 -30 -4 23 -25 76 -26 98 -2 19 21 22 58 6 67 -6 4 -8
22 -4 45 5 28 2 42 -10 54 -19 19 -66 21 -83 4z"/>
<path d="M526 3754 c-9 -24 -9 -24 29 -24 l35 0 0 -170 c0 -163 1 -170 20
-170 19 0 20 7 20 190 l0 190 -49 0 c-35 0 -51 -4 -55 -16z"/>
<path d="M812 3754 c-67 -46 -91 -207 -44 -290 28 -48 67 -74 112 -74 83 0
132 72 131 192 -1 119 -49 188 -131 188 -25 0 -56 -7 -68 -16z m116 -46 c44
-47 56 -145 27 -215 -42 -100 -139 -78 -164 38 -28 131 65 252 137 177z"/>
<path d="M4284 3736 c-41 -41 -44 -66 -9 -66 14 0 25 5 25 10 0 20 41 50 69
50 36 0 81 -35 81 -64 0 -26 -11 -43 -112 -168 -43 -53 -78 -99 -78 -102 0 -3
52 -6 115 -6 108 0 115 1 115 20 0 18 -7 20 -75 20 l-76 0 64 78 c78 94 87
110 87 157 0 29 -8 45 -34 71 -30 30 -40 34 -86 34 -46 0 -56 -4 -86 -34z"/>
<path d="M1060 3460 c-20 -20 -26 -40 -12 -40 4 0 15 9 25 20 9 11 23 20 31
20 14 0 46 -26 46 -36 0 -11 -25 -51 -55 -89 -52 -66 -52 -65 9 -65 31 0 56 5
56 10 0 6 -16 10 -35 10 -19 0 -35 3 -35 6 0 3 16 24 35 47 42 49 47 97 13
121 -30 21 -54 20 -78 -4z"/>
<path d="M1220 3460 c-20 -20 -26 -40 -12 -40 4 0 15 9 25 20 22 26 42 25 61
-2 17 -25 12 -40 -39 -103 -52 -66 -52 -65 9 -65 31 0 56 5 56 10 0 6 -16 10
-35 10 -19 0 -35 3 -35 6 0 3 16 24 35 47 42 49 47 97 13 121 -30 21 -54 20
-78 -4z"/>
<path d="M3895 3470 c-3 -5 3 -10 14 -10 19 0 21 -7 24 -97 l3 -98 2 108 c2
100 1 107 -17 107 -11 0 -23 -4 -26 -10z"/>
<path d="M4063 3384 l-53 -79 49 -3 c37 -2 51 -7 54 -20 4 -16 5 -16 6 1 0 9
8 17 16 17 8 0 15 5 15 10 0 6 -7 10 -15 10 -11 0 -15 17 -17 72 l-3 72 -52
-80z m47 -24 c0 -39 -1 -40 -35 -40 l-35 0 26 40 c15 22 31 40 35 40 5 0 9
-18 9 -40z"/>
<path d="M354 2766 c-119 -52 -100 -228 27 -245 l41 -6 -51 -67 -51 -67 22
-15 c21 -15 24 -12 105 97 46 62 87 128 93 147 30 109 -80 202 -186 156z m89
-48 c50 -26 61 -77 26 -122 -44 -56 -140 -20 -139 53 1 29 15 52 45 69 26 15
41 15 68 0z"/>
<path d="M4575 2708 c-27 -15 -44 -39 -45 -60 0 -26 29 -22 56 7 27 29 68 33
102 9 43 -30 17 -104 -36 -104 -17 0 -22 -6 -22 -25 0 -20 5 -25 23 -25 31 0
57 -29 57 -63 0 -64 -88 -91 -134 -42 -29 31 -67 34 -59 5 3 -11 19 -31 35
-45 39 -33 122 -35 161 -5 48 38 55 117 15 160 l-20 21 21 20 c15 14 21 32 21
64 0 60 -40 95 -108 95 -26 0 -56 -6 -67 -12z"/>
<path d="M4120 2630 c0 -5 7 -10 15 -10 12 0 15 -17 15 -95 0 -57 4 -95 10
-95 6 0 10 42 10 105 l0 105 -25 0 c-14 0 -25 -4 -25 -10z"/>
<path d="M4290 2633 c0 -5 -7 -29 -15 -56 -14 -47 -14 -47 6 -36 54 29 103
-31 60 -74 -19 -19 -25 -20 -53 -9 -17 6 -34 9 -37 6 -10 -9 31 -34 56 -34 31
0 73 42 73 74 0 26 -41 66 -67 66 -9 0 -13 8 -11 23 2 17 11 23 36 25 46 5 40
22 -8 22 -22 0 -40 -3 -40 -7z"/>
<path d="M663 2623 c-26 -10 -12 -18 26 -15 32 3 40 0 46 -17 8 -27 -5 -50
-54 -94 -23 -20 -41 -41 -41 -47 0 -6 27 -10 60 -10 33 0 60 4 60 10 0 6 -21
10 -47 10 l-47 0 41 43 c50 52 58 73 38 103 -15 23 -50 30 -82 17z"/>
<path d="M870 2620 c0 -6 -10 -15 -22 -20 l-23 -9 23 0 c20 -1 22 -5 22 -66 0
-58 -2 -65 -20 -65 -11 0 -20 -4 -20 -10 0 -5 20 -10 45 -10 25 0 45 5 45 10
0 6 -7 10 -15 10 -12 0 -15 16 -15 85 0 50 -4 85 -10 85 -5 0 -10 -5 -10 -10z"/>
<path d="M0 2530 l0 -60 45 0 45 0 0 60 0 60 -45 0 -45 0 0 -60z"/>
<path d="M48 2302 l-48 -3 0 -1150 0 -1149 1063 1 c584 1 1047 5 1029 9 -18 4
-35 9 -37 12 -2 2 1 23 6 47 5 24 8 45 6 47 -2 2 -17 7 -34 10 -29 6 -30 4
-37 -37 -4 -23 -9 -46 -11 -50 -4 -6 -183 35 -192 45 -2 1 4 22 12 46 17 47
12 58 -24 62 -19 3 -26 -4 -37 -36 -8 -22 -16 -42 -19 -44 -9 -9 -186 62 -181
73 2 5 11 27 20 48 16 37 16 37 -9 47 -39 15 -42 13 -55 -26 -7 -19 -18 -38
-25 -41 -8 -2 -46 12 -84 32 l-71 37 26 44 25 43 -38 24 c-21 13 -43 27 -50
30 -7 5 -22 -9 -38 -37 l-26 -45 -70 46 c-38 25 -69 50 -69 55 0 5 12 24 26
43 l25 34 -27 17 -27 18 -31 -37 -31 -37 -70 55 c-39 31 -72 61 -74 66 -2 6 9
24 25 40 l28 29 -25 26 -24 26 -33 -38 -33 -39 -69 73 -69 73 35 31 35 31 -25
26 -26 25 -29 -28 c-16 -16 -34 -27 -39 -25 -6 2 -35 36 -66 74 l-56 70 37 31
37 31 -18 27 -17 27 -34 -25 c-19 -14 -38 -26 -43 -26 -11 0 -92 121 -92 136
0 5 18 19 40 32 l40 23 -27 47 c-14 26 -28 49 -29 51 -2 2 -23 -8 -47 -23
l-45 -26 -37 71 c-20 38 -34 76 -32 84 3 7 22 18 41 25 38 12 46 33 24 63 -12
15 -16 15 -57 -3 -24 -11 -45 -19 -46 -18 -6 7 -65 169 -65 177 0 5 19 16 43
24 35 12 42 18 39 38 -4 36 -15 41 -62 24 -24 -8 -44 -14 -46 -12 -7 6 -44
154 -44 174 0 18 7 23 45 29 37 5 45 10 45 28 0 40 -13 48 -61 37 -53 -12 -54
-11 -68 86 -16 104 -17 100 39 107 38 5 50 11 49 24 -1 39 -13 47 -61 44z"/>
<path d="M970 1780 c-11 -11 -20 -24 -20 -30 0 -17 17 -11 32 12 11 16 20 20
40 15 51 -13 46 -43 -25 -132 l-40 -50 53 -3 c29 -2 58 2 63 7 8 8 -1 11 -31
11 -23 0 -42 3 -42 6 0 3 16 25 35 48 42 52 47 97 13 120 -30 21 -54 20 -78
-4z"/>
<path d="M1131 1774 c-44 -56 -16 -184 40 -184 11 0 31 11 44 25 21 20 25 34
25 80 0 46 -4 60 -25 80 -31 32 -58 32 -84 -1z m66 -2 c36 -23 38 -116 3 -147
-58 -52 -106 75 -52 138 16 18 30 21 49 9z"/>
<path d="M3896 1791 c-3 -5 3 -11 14 -14 17 -4 20 -16 23 -98 l3 -94 2 108 c2
100 1 107 -17 107 -11 0 -22 -4 -25 -9z"/>
<path d="M4060 1737 c-47 -63 -53 -107 -18 -131 49 -34 108 -7 108 49 0 36
-28 65 -63 65 -16 0 -15 4 9 35 14 19 21 35 16 35 -6 0 -29 -24 -52 -53z m66
-62 c16 -24 16 -27 -1 -45 -25 -28 -61 -25 -81 5 -16 24 -16 27 1 45 25 28 61
25 81 -5z"/>
<path d="M1950 1619 l0 -89 85 0 c84 0 85 0 85 25 0 24 -3 25 -60 25 l-59 0
-3 63 c-3 56 -5 62 -25 63 -22 1 -23 -2 -23 -87z"/>
<path d="M2150 1619 l0 -89 95 0 c88 0 95 1 95 20 0 18 -7 20 -70 20 -56 0
-70 3 -70 15 0 12 14 15 65 15 58 0 65 2 65 20 0 18 -7 20 -65 20 -37 0 -65 4
-65 10 0 6 30 10 71 10 67 0 70 1 67 23 -3 21 -8 22 -95 23 l-93 2 0 -89z"/>
<path d="M2387 1704 c-4 -4 -7 -45 -7 -91 l0 -83 30 0 31 0 -3 88 c-3 79 -5
87 -23 90 -12 2 -24 0 -28 -4z"/>
<path d="M2470 1702 c-5 -2 -10 -12 -10 -23 0 -16 7 -19 40 -19 l40 0 0 -66
c0 -65 0 -65 27 -62 26 3 27 4 24 66 l-2 62 41 0 c37 0 41 2 38 23 -3 21 -7
22 -95 22 -51 0 -97 -1 -103 -3z"/>
<path d="M2713 1699 c-35 -19 -46 -106 -17 -147 14 -20 24 -22 103 -22 93 0
111 8 111 47 0 18 -6 23 -24 23 -13 0 -29 -7 -36 -15 -13 -16 -76 -20 -98 -6
-8 5 -12 22 -10 42 3 33 4 34 56 37 31 2 52 -1 52 -7 0 -6 14 -11 30 -11 23 0
30 5 30 19 0 10 -7 24 -15 31 -20 17 -154 23 -182 9z"/>
<path d="M2946 1703 c-3 -4 -6 -44 -6 -90 0 -82 0 -83 25 -83 21 0 25 5 25 29
0 34 6 37 65 33 42 -4 45 -6 45 -33 0 -26 4 -29 30 -29 l30 0 0 84 c0 88 -6
102 -40 91 -14 -4 -20 -15 -20 -36 0 -29 -1 -29 -55 -29 l-55 0 0 33 c0 25 -4
33 -19 34 -10 1 -22 -1 -25 -4z"/>
<path d="M4338 1513 l-117 -173 100 0 c99 0 99 0 99 -25 0 -18 5 -25 20 -25
15 0 20 7 20 25 0 18 5 25 20 25 13 0 20 7 20 20 0 13 -7 20 -20 20 -18 0 -20
8 -22 153 l-3 154 -117 -174z m82 -48 l0 -85 -55 0 c-30 0 -55 3 -55 8 0 7
102 162 107 162 2 0 3 -38 3 -85z"/>
<path d="M649 1641 c-20 -20 -29 -39 -29 -61 0 -32 15 -70 32 -81 6 -4 -2 -18
-16 -32 -21 -21 -26 -36 -26 -73 0 -39 5 -51 32 -76 30 -28 37 -30 91 -26 46
4 63 10 85 31 37 37 38 104 3 141 -22 24 -23 27 -9 43 25 28 30 60 18 98 -23
69 -127 89 -181 36z m123 -28 c26 -31 28 -51 7 -77 -36 -46 -119 -22 -119 34
0 50 80 80 112 43z m20 -184 c19 -24 19 -28 4 -56 -25 -48 -75 -58 -120 -22
-54 43 -18 113 56 107 30 -2 46 -10 60 -29z"/>
<path d="M1613 1173 c15 -4 17 -17 17 -99 0 -56 4 -94 10 -94 6 0 10 40 10
100 l0 100 -27 -1 c-17 -1 -21 -3 -10 -6z"/>
<path d="M1736 1158 c-9 -12 -16 -32 -16 -44 0 -24 29 -54 53 -54 23 0 21 -23
-3 -45 -21 -19 -26 -35 -11 -35 13 0 101 126 101 144 0 51 -95 76 -124 34z
m82 -4 c29 -20 28 -50 -3 -70 -23 -15 -27 -15 -50 0 -31 20 -32 50 -3 70 12 9
25 16 28 16 3 0 16 -7 28 -16z"/>
<path d="M3293 1173 c15 -4 17 -17 17 -99 0 -56 4 -94 10 -94 6 0 10 40 10
100 l0 100 -27 -1 c-17 -1 -21 -3 -10 -6z"/>
<path d="M3448 1173 c28 -2 52 -7 52 -10 0 -3 -21 -41 -46 -84 -25 -44 -44
-84 -42 -91 2 -6 27 26 56 73 76 126 76 119 -4 117 -64 -2 -65 -2 -16 -5z"/>
<path d="M2440 950 c0 -5 7 -10 15 -10 12 0 15 -17 15 -95 0 -57 4 -95 10 -95
6 0 10 42 10 105 l0 105 -25 0 c-14 0 -25 -4 -25 -10z"/>
<path d="M2587 942 c-20 -21 -22 -53 -6 -69 9 -9 8 -16 -5 -28 -9 -9 -16 -25
-16 -36 0 -27 35 -59 65 -59 30 0 65 32 65 59 0 11 -7 27 -16 36 -13 12 -14
19 -5 28 28 28 -2 87 -46 87 -11 0 -27 -8 -36 -18z m67 -24 c8 -14 7 -21 -6
-34 -30 -30 -75 9 -48 42 16 18 39 15 54 -8z m10 -90 c14 -23 -3 -52 -33 -56
-42 -6 -67 38 -39 66 17 17 58 11 72 -10z"/>
<path d="M1376 901 c-4 -5 -4 -16 0 -24 4 -11 26 -15 97 -16 50 -1 92 -3 93
-4 2 -2 -38 -68 -88 -147 -49 -80 -92 -151 -95 -159 -5 -12 12 -30 28 -31 3 0
46 66 94 148 49 81 101 166 116 188 16 23 25 44 22 48 -10 10 -261 7 -267 -3z"/>
<path d="M3561 888 c-20 -54 -52 -170 -48 -175 3 -2 17 3 31 12 55 36 136 -10
136 -77 0 -20 -10 -40 -30 -60 -27 -27 -36 -30 -71 -25 -23 3 -51 15 -63 27
-20 18 -24 19 -36 5 -18 -21 -7 -39 35 -60 83 -39 182 1 204 83 10 33 9 41
-11 94 -12 33 -65 68 -103 68 -26 0 -27 2 -20 38 4 20 8 38 10 40 2 2 30 4 62
5 51 2 58 4 58 22 0 18 -8 20 -73 23 -68 3 -73 1 -81 -20z"/>
<path d="M2521 534 c-93 -122 -108 -157 -87 -207 20 -48 68 -77 128 -77 89 0
149 91 114 173 -16 39 -67 77 -104 77 -21 0 -20 3 19 55 38 51 43 75 16 75 -7
0 -45 -43 -86 -96z m69 -89 c55 -28 67 -89 25 -130 -70 -71 -186 22 -129 103
14 21 45 40 67 41 4 1 21 -6 37 -14z"/>
<path d="M2256 59 c-11 -54 -8 -59 28 -59 32 0 34 2 38 40 4 41 -4 50 -42 50
-12 0 -20 -10 -24 -31z"/>
<path d="M2785 84 c-6 -2 -9 -22 -7 -44 4 -38 6 -40 38 -40 36 0 39 5 28 59
-6 30 -27 39 -59 25z"/>
<path d="M2490 35 l0 -35 60 0 60 0 0 35 0 35 -60 0 -60 0 0 -35z"/>
</g>
</svg>
